<mxfile host="app.diagrams.net" modified="2023-11-03T19:43:33.952Z" agent="5.0 (Windows)" etag="buOSI95GnMSqFFL_bO5K" version="20.8.16" type="github">
  <diagram name="Page-1" id="dcWUBzU9fhlhp9Y05Il0">
    <mxGraphModel dx="1029" dy="829" grid="1" gridSize="10" guides="1" tooltips="1" connect="1" arrows="1" fold="1" page="1" pageScale="1" pageWidth="850" pageHeight="1100" math="0" shadow="0">
      <root>
        <mxCell id="0" />
        <mxCell id="1" parent="0" />
        <mxCell id="pR6wOZlUK_r56ZYDmY0q-1" value="" style="shape=flexArrow;endArrow=classic;html=1;rounded=0;" edge="1" parent="1">
          <mxGeometry width="50" height="50" relative="1" as="geometry">
            <mxPoint x="320" y="100" as="sourcePoint" />
            <mxPoint x="320" y="160" as="targetPoint" />
          </mxGeometry>
        </mxCell>
        <mxCell id="pR6wOZlUK_r56ZYDmY0q-4" value="&lt;pre class=&quot;notranslate&quot;&gt;&lt;code&gt;&lt;b&gt;JSON input:&lt;/b&gt;&lt;br&gt;{&lt;br&gt;  &lt;/code&gt;&lt;code&gt;&quot;base&quot;:&quot;$ref:base-configuration&quot;&lt;br&gt;&lt;/code&gt;&lt;code&gt;}&lt;/code&gt;&lt;/pre&gt;" style="text;html=1;strokeColor=none;fillColor=none;align=left;verticalAlign=middle;whiteSpace=wrap;rounded=0;" vertex="1" parent="1">
          <mxGeometry x="410" y="60" width="350" height="70" as="geometry" />
        </mxCell>
        <mxCell id="pR6wOZlUK_r56ZYDmY0q-6" value="Client, service, app, etc." style="shape=umlActor;verticalLabelPosition=bottom;verticalAlign=top;html=1;outlineConnect=0;" vertex="1" parent="1">
          <mxGeometry x="310" y="30" width="20" height="40" as="geometry" />
        </mxCell>
        <mxCell id="pR6wOZlUK_r56ZYDmY0q-7" value="Configuration Service API" style="rounded=0;whiteSpace=wrap;html=1;" vertex="1" parent="1">
          <mxGeometry x="240" y="160" width="160" height="40" as="geometry" />
        </mxCell>
        <mxCell id="pR6wOZlUK_r56ZYDmY0q-8" value="" style="shape=cylinder3;whiteSpace=wrap;html=1;boundedLbl=1;backgroundOutline=1;size=15;" vertex="1" parent="1">
          <mxGeometry x="500" y="200" width="60" height="80" as="geometry" />
        </mxCell>
        <mxCell id="pR6wOZlUK_r56ZYDmY0q-11" value="" style="shape=flexArrow;endArrow=classic;html=1;rounded=0;" edge="1" parent="1">
          <mxGeometry width="50" height="50" relative="1" as="geometry">
            <mxPoint x="319.5" y="210" as="sourcePoint" />
            <mxPoint x="320" y="680" as="targetPoint" />
          </mxGeometry>
        </mxCell>
        <mxCell id="pR6wOZlUK_r56ZYDmY0q-12" value="" style="shape=flexArrow;endArrow=classic;html=1;rounded=0;exitX=0;exitY=0.5;exitDx=0;exitDy=0;exitPerimeter=0;" edge="1" parent="1" source="pR6wOZlUK_r56ZYDmY0q-8">
          <mxGeometry width="50" height="50" relative="1" as="geometry">
            <mxPoint x="170" y="240" as="sourcePoint" />
            <mxPoint x="330" y="240" as="targetPoint" />
          </mxGeometry>
        </mxCell>
        <mxCell id="pR6wOZlUK_r56ZYDmY0q-13" value="&lt;div&gt;&lt;b&gt;SQL connection string&lt;/b&gt;&lt;/div&gt;&lt;div&gt;&lt;code&gt;&quot;ConnectionStrings&quot;:&lt;/code&gt;&lt;/div&gt;&lt;div&gt;&lt;code&gt;{&lt;/code&gt;&lt;/div&gt;&lt;div&gt;&lt;code&gt;  &quot;Default&quot;: &quot;Data Source=dbserver;&lt;/code&gt;&lt;/div&gt;&lt;div&gt;&lt;code&gt;&amp;nbsp;&amp;nbsp;&amp;nbsp;&amp;nbsp;&amp;nbsp;&amp;nbsp;&amp;nbsp;&amp;nbsp;&amp;nbsp;&amp;nbsp; Initial Catalog=myDb;User Id=sa;&lt;/code&gt;&lt;/div&gt;&lt;div&gt;&lt;code&gt;&amp;nbsp;&amp;nbsp;&amp;nbsp;&amp;nbsp;&amp;nbsp;&amp;nbsp;&amp;nbsp;&amp;nbsp;&amp;nbsp;&amp;nbsp; Password=SuperNinjaPassword&quot;&lt;/code&gt;&lt;/div&gt;&lt;div&gt;&lt;code&gt;}&lt;/code&gt;&lt;/div&gt;" style="text;html=1;strokeColor=none;fillColor=none;align=left;verticalAlign=middle;whiteSpace=wrap;rounded=0;" vertex="1" parent="1">
          <mxGeometry x="470" y="290" width="350" height="120" as="geometry" />
        </mxCell>
        <mxCell id="pR6wOZlUK_r56ZYDmY0q-14" value="" style="shape=cylinder3;whiteSpace=wrap;html=1;boundedLbl=1;backgroundOutline=1;size=15;" vertex="1" parent="1">
          <mxGeometry x="500" y="450" width="60" height="80" as="geometry" />
        </mxCell>
        <mxCell id="pR6wOZlUK_r56ZYDmY0q-15" value="" style="shape=flexArrow;endArrow=classic;html=1;rounded=0;exitX=0;exitY=0.5;exitDx=0;exitDy=0;exitPerimeter=0;" edge="1" parent="1">
          <mxGeometry width="50" height="50" relative="1" as="geometry">
            <mxPoint x="500" y="489.5" as="sourcePoint" />
            <mxPoint x="330" y="489.5" as="targetPoint" />
          </mxGeometry>
        </mxCell>
        <mxCell id="pR6wOZlUK_r56ZYDmY0q-16" value="&lt;div&gt;&lt;b&gt;RabbitMQ settings&lt;/b&gt;&lt;/div&gt;&lt;div&gt;&lt;code&gt;&quot;RabbitMQ&quot;:&lt;/code&gt;&lt;/div&gt;&lt;div&gt;&lt;code&gt;{&lt;/code&gt;&lt;/div&gt;&lt;div&gt;&lt;code&gt;&amp;nbsp; &quot;Server&quot;: &quot;MyMqServer&quot;,&lt;/code&gt;&lt;/div&gt;&lt;div&gt;&lt;code&gt;&amp;nbsp; &quot;Port&quot;: 5672,&lt;/code&gt;&lt;/div&gt;&lt;div&gt;&lt;code&gt;&amp;nbsp; &quot;Username&quot;: &quot;Goofy&quot;,&lt;/code&gt;&lt;/div&gt;&lt;div&gt;&lt;code&gt;&amp;nbsp; &quot;Password&quot;: &quot;EpicHeroPassword&quot;&lt;/code&gt;&lt;/div&gt;&lt;div&gt;&lt;code&gt;  }&lt;/code&gt;&lt;/div&gt;" style="text;html=1;strokeColor=none;fillColor=none;align=left;verticalAlign=middle;whiteSpace=wrap;rounded=0;" vertex="1" parent="1">
          <mxGeometry x="470" y="540" width="350" height="120" as="geometry" />
        </mxCell>
        <mxCell id="pR6wOZlUK_r56ZYDmY0q-17" value="&lt;pre class=&quot;notranslate&quot;&gt;&lt;code&gt;&lt;b&gt;JSON output:&lt;/b&gt;&lt;br&gt;{&lt;br&gt;  &quot;ConnectionStrings&quot;: {&lt;br&gt;    &quot;Default&quot;: &quot;Data Source=dbserver;&lt;br&gt;               Initial Catalog=myDb;User Id=sa;&lt;br&gt;               Password=SuperNinjaPassword&quot;&lt;br&gt;  },&lt;br&gt;  &quot;RabbitMQ&quot;: {&lt;br&gt;    &quot;Server&quot;: &quot;MyMqServer&quot;,&lt;br&gt;    &quot;Port&quot;: 5672,&lt;br&gt;    &quot;Username&quot;: &quot;Goofy&quot;,&lt;br&gt;    &quot;Password&quot;: &quot;EpicHeroPassword&quot;&lt;br&gt;  }&lt;br&gt;}&lt;br&gt;&lt;/code&gt;&lt;/pre&gt;" style="text;html=1;strokeColor=none;fillColor=none;align=left;verticalAlign=middle;whiteSpace=wrap;rounded=0;" vertex="1" parent="1">
          <mxGeometry x="350" y="670" width="350" height="210" as="geometry" />
        </mxCell>
      </root>
    </mxGraphModel>
  </diagram>
</mxfile>
